<?xml version="1.0" encoding="iso-8859-1"?>
<!-- Generator: Adobe Illustrator 18.1.1, SVG Export Plug-In . SVG Version: 6.00 Build 0)  -->
<svg fill="#a2a2a5" version="1.1" id="Capa_1" xmlns="http://www.w3.org/2000/svg" xmlns:xlink="http://www.w3.org/1999/xlink" x="0px" y="0px"
	 viewBox="0 0 591.65 591.65" style="enable-background:new 0 0 591.65 591.65;" xml:space="preserve">
<g>
	<g>
		<path d="M581.425,387.65H389.257l58.956-183.6h133.212c5.712,0,10.2-4.488,10.2-10.2s-4.488-10.2-10.2-10.2H454.741l54.672-170.34
			c1.632-5.304-1.224-11.016-6.528-12.852c-5.304-1.632-11.016,1.224-12.852,6.528L433.321,183.65h-202.98l54.672-170.34
			c1.632-5.304-1.224-11.016-6.528-12.852c-5.304-1.632-11.016,1.224-12.852,6.528L208.921,183.65H10.225
			c-5.712,0-10.2,4.488-10.2,10.2s4.488,10.2,10.2,10.2h192.168l-58.956,183.6H10.225c-5.712,0-10.2,4.488-10.2,10.2
			s4.488,10.2,10.2,10.2h126.684L82.237,578.39c-1.632,5.304,1.224,11.016,6.528,12.852c1.02,0.408,2.04,0.408,3.06,0.408
			c4.284,0,8.364-2.856,9.792-7.14l56.712-176.46h202.98l-54.672,170.34c-1.632,5.304,1.224,11.016,6.528,12.852
			c1.02,0.408,2.04,0.408,3.06,0.408c4.284,0,8.364-2.856,9.792-7.14l56.712-176.46h198.696c5.712,0,10.2-4.488,10.2-10.2
			S587.137,387.65,581.425,387.65z M164.857,387.65l58.956-183.6h202.98l-58.956,183.6H164.857z"/>
		<path d="M244.417,221.594c-2.652-0.816-5.508,0.408-6.528,3.264l-48.96,142.8c-0.816,2.652,0.408,5.508,3.264,6.528
			c0.612,0.204,1.02,0.204,1.632,0.204c2.04,0,4.08-1.428,4.896-3.468l48.96-142.8C248.497,225.47,247.069,222.614,244.417,221.594z
			"/>
	</g>
</g>
<g>
</g>
<g>
</g>
<g>
</g>
<g>
</g>
<g>
</g>
<g>
</g>
<g>
</g>
<g>
</g>
<g>
</g>
<g>
</g>
<g>
</g>
<g>
</g>
<g>
</g>
<g>
</g>
<g>
</g>
</svg>
