<svg width="220" height="107" viewBox="0 0 220 107" fill="none" xmlns="http://www.w3.org/2000/svg">
<rect x="9.38379" width="141.801" height="65.2361" rx="8" fill="#1597E5"/>
<ellipse cx="34.4643" cy="29.9444" rx="6.75243" ry="7.48611" fill="white"/>
<ellipse cx="55.686" cy="29.9444" rx="6.75242" ry="7.48611" fill="white"/>
<ellipse cx="77.8725" cy="29.9444" rx="6.75243" ry="7.48611" fill="white"/>
<path d="M130.445 77L122.509 64.9688H138.382L130.445 77Z" fill="#1597E5"/>
<path d="M63.0049 94.2167C62.8044 96.3404 62.0205 97.9992 60.6533 99.1932C59.2861 100.378 57.4678 100.971 55.1982 100.971C53.6123 100.971 52.2132 100.597 51.001 99.8495C49.7979 99.093 48.8682 98.022 48.2119 96.6366C47.5557 95.2512 47.2139 93.6425 47.1865 91.8104V89.951C47.1865 88.0734 47.5192 86.4191 48.1846 84.9882C48.8499 83.5572 49.8024 82.4543 51.042 81.6796C52.2907 80.9048 53.7308 80.5175 55.3623 80.5175C57.5589 80.5175 59.3271 81.1145 60.667 82.3085C62.0068 83.5025 62.7861 85.1887 63.0049 87.3671H59.5596C59.3955 85.9361 58.9762 84.9061 58.3018 84.2772C57.6364 83.6392 56.6566 83.3202 55.3623 83.3202C53.8584 83.3202 52.7008 83.8716 51.8896 84.9745C51.0876 86.0682 50.6774 87.677 50.6592 89.8007V91.5643C50.6592 93.7154 51.042 95.356 51.8076 96.4862C52.5824 97.6164 53.7126 98.1815 55.1982 98.1815C56.5563 98.1815 57.5771 97.8762 58.2607 97.2655C58.9443 96.6548 59.3773 95.6385 59.5596 94.2167H63.0049ZM69.5674 97.9354H78.6045V100.697H66.1084V80.7909H69.5674V97.9354ZM95.4893 80.7909V94.0936C95.4893 96.2082 94.8102 97.8853 93.4521 99.1249C92.1032 100.355 90.3031 100.971 88.0518 100.971C85.7731 100.971 83.9639 100.364 82.624 99.1522C81.2842 97.9309 80.6143 96.2401 80.6143 94.08V80.7909H84.0596V94.1073C84.0596 95.438 84.3968 96.4543 85.0713 97.1561C85.7458 97.858 86.7393 98.2089 88.0518 98.2089C90.7132 98.2089 92.0439 96.8052 92.0439 93.9979V80.7909H95.4893ZM99.1943 100.697V80.7909H106.017C108.268 80.7909 109.981 81.2421 111.157 82.1444C112.333 83.0468 112.921 84.3912 112.921 86.1776C112.921 87.0891 112.675 87.9094 112.183 88.6385C111.69 89.3677 110.97 89.9328 110.022 90.3339C111.098 90.6255 111.927 91.177 112.511 91.9882C113.103 92.7902 113.399 93.7564 113.399 94.8866C113.399 96.7551 112.798 98.1906 111.595 99.1932C110.401 100.196 108.687 100.697 106.454 100.697H99.1943ZM102.653 91.7147V97.9354H106.495C107.58 97.9354 108.427 97.6665 109.038 97.1288C109.649 96.591 109.954 95.8436 109.954 94.8866C109.954 92.8176 108.897 91.7603 106.782 91.7147H102.653ZM102.653 89.1718H106.044C107.119 89.1718 107.958 88.9302 108.56 88.4471C109.17 87.955 109.476 87.2622 109.476 86.369C109.476 85.3846 109.193 84.6737 108.628 84.2362C108.072 83.7987 107.201 83.58 106.017 83.58H102.653V89.1718ZM132.048 94.2167C131.847 96.3404 131.063 97.9992 129.696 99.1932C128.329 100.378 126.511 100.971 124.241 100.971C122.655 100.971 121.256 100.597 120.044 99.8495C118.841 99.093 117.911 98.022 117.255 96.6366C116.599 95.2512 116.257 93.6425 116.229 91.8104V89.951C116.229 88.0734 116.562 86.4191 117.228 84.9882C117.893 83.5572 118.845 82.4543 120.085 81.6796C121.334 80.9048 122.774 80.5175 124.405 80.5175C126.602 80.5175 128.37 81.1145 129.71 82.3085C131.05 83.5025 131.829 85.1887 132.048 87.3671H128.603C128.438 85.9361 128.019 84.9061 127.345 84.2772C126.679 83.6392 125.7 83.3202 124.405 83.3202C122.901 83.3202 121.744 83.8716 120.933 84.9745C120.131 86.0682 119.72 87.677 119.702 89.8007V91.5643C119.702 93.7154 120.085 95.356 120.851 96.4862C121.625 97.6164 122.756 98.1815 124.241 98.1815C125.599 98.1815 126.62 97.8762 127.304 97.2655C127.987 96.6548 128.42 95.6385 128.603 94.2167H132.048ZM150.956 100.697H147.511V91.8514H138.61V100.697H135.151V80.7909H138.61V89.076H147.511V80.7909H150.956V100.697ZM166.446 96.0624H158.735L157.122 100.697H153.526L161.046 80.7909H164.149L171.683 100.697H168.073L166.446 96.0624ZM159.706 93.2733H165.476L162.591 85.0155L159.706 93.2733ZM186.694 83.58H180.487V100.697H177.056V83.58H170.903V80.7909H186.694V83.58Z" fill="#1597E5"/>
</svg>
