<!-- <svg width="278" height="128" viewBox="0 0 447 319" fill="none" xmlns="http://www.w3.org/2000/svg">
<rect width="323" height="150.806" rx="8" fill="#1597E5"/>
<ellipse cx="57.129" cy="69.2222" rx="15.3809" ry="17.3056" fill="white"/>
<ellipse cx="105.469" cy="69.2222" rx="15.3809" ry="17.3056" fill="white"/>
<ellipse cx="156.006" cy="69.2222" rx="15.381" ry="17.3056" fill="white"/>
<path d="M275.759 178L257.681 150.187H293.836L275.759 178Z" fill="#1597E5"/>
<path d="M163.344 232.188C162.885 237.042 161.094 240.833 157.969 243.562C154.844 246.271 150.688 247.625 145.5 247.625C141.875 247.625 138.677 246.771 135.906 245.062C133.156 243.333 131.031 240.885 129.531 237.719C128.031 234.552 127.25 230.875 127.188 226.688V222.438C127.188 218.146 127.948 214.365 129.469 211.094C130.99 207.823 133.167 205.302 136 203.531C138.854 201.76 142.146 200.875 145.875 200.875C150.896 200.875 154.938 202.24 158 204.969C161.062 207.698 162.844 211.552 163.344 216.531H155.469C155.094 213.26 154.135 210.906 152.594 209.469C151.073 208.01 148.833 207.281 145.875 207.281C142.438 207.281 139.792 208.542 137.938 211.062C136.104 213.562 135.167 217.24 135.125 222.094V226.125C135.125 231.042 136 234.792 137.75 237.375C139.521 239.958 142.104 241.25 145.5 241.25C148.604 241.25 150.938 240.552 152.5 239.156C154.062 237.76 155.052 235.438 155.469 232.188H163.344ZM178.344 240.688H199V247H170.438V201.5H178.344V240.688ZM237.594 201.5V231.906C237.594 236.74 236.042 240.573 232.938 243.406C229.854 246.219 225.74 247.625 220.594 247.625C215.385 247.625 211.25 246.24 208.188 243.469C205.125 240.677 203.594 236.812 203.594 231.875V201.5H211.469V231.938C211.469 234.979 212.24 237.302 213.781 238.906C215.323 240.51 217.594 241.312 220.594 241.312C226.677 241.312 229.719 238.104 229.719 231.688V201.5H237.594ZM246.062 247V201.5H261.656C266.802 201.5 270.719 202.531 273.406 204.594C276.094 206.656 277.438 209.729 277.438 213.812C277.438 215.896 276.875 217.771 275.75 219.438C274.625 221.104 272.979 222.396 270.812 223.312C273.271 223.979 275.167 225.24 276.5 227.094C277.854 228.927 278.531 231.135 278.531 233.719C278.531 237.99 277.156 241.271 274.406 243.562C271.677 245.854 267.76 247 262.656 247H246.062ZM253.969 226.469V240.688H262.75C265.229 240.688 267.167 240.073 268.562 238.844C269.958 237.615 270.656 235.906 270.656 233.719C270.656 228.99 268.24 226.573 263.406 226.469H253.969ZM253.969 220.656H261.719C264.177 220.656 266.094 220.104 267.469 219C268.865 217.875 269.562 216.292 269.562 214.25C269.562 212 268.917 210.375 267.625 209.375C266.354 208.375 264.365 207.875 261.656 207.875H253.969V220.656ZM321.156 232.188C320.698 237.042 318.906 240.833 315.781 243.562C312.656 246.271 308.5 247.625 303.312 247.625C299.688 247.625 296.49 246.771 293.719 245.062C290.969 243.333 288.844 240.885 287.344 237.719C285.844 234.552 285.062 230.875 285 226.688V222.438C285 218.146 285.76 214.365 287.281 211.094C288.802 207.823 290.979 205.302 293.812 203.531C296.667 201.76 299.958 200.875 303.688 200.875C308.708 200.875 312.75 202.24 315.812 204.969C318.875 207.698 320.656 211.552 321.156 216.531H313.281C312.906 213.26 311.948 210.906 310.406 209.469C308.885 208.01 306.646 207.281 303.688 207.281C300.25 207.281 297.604 208.542 295.75 211.062C293.917 213.562 292.979 217.24 292.938 222.094V226.125C292.938 231.042 293.812 234.792 295.562 237.375C297.333 239.958 299.917 241.25 303.312 241.25C306.417 241.25 308.75 240.552 310.312 239.156C311.875 237.76 312.865 235.438 313.281 232.188H321.156ZM364.375 247H356.5V226.781H336.156V247H328.25V201.5H336.156V220.438H356.5V201.5H364.375V247ZM399.781 236.406H382.156L378.469 247H370.25L387.438 201.5H394.531L411.75 247H403.5L399.781 236.406ZM384.375 230.031H397.562L390.969 211.156L384.375 230.031ZM446.062 207.875H431.875V247H424.031V207.875H409.969V201.5H446.062V207.875Z" fill="#1597E5"/>
</svg> -->
<svg width="211" height="175" viewBox="0 0 211 175" fill="none" xmlns="http://www.w3.org/2000/svg">
<rect width="156.579" height="90.479" rx="8" fill="#1597E5"/>
<ellipse cx="27.6944" cy="41.5313" rx="7.45615" ry="10.3828" fill="white"/>
<ellipse cx="51.1275" cy="41.5313" rx="7.45615" ry="10.3828" fill="white"/>
<ellipse cx="75.6261" cy="41.5313" rx="7.45616" ry="10.3828" fill="white"/>
<path d="M133.678 106.795L124.915 90.1082H142.442L133.678 106.795Z" fill="#1597E5"/>
<path d="M61.1313 131.52C60.9308 133.643 60.147 135.302 58.7798 136.496C57.4126 137.681 55.5942 138.273 53.3247 138.273C51.7388 138.273 50.3397 137.9 49.1274 137.152C47.9243 136.396 46.9946 135.325 46.3384 133.939C45.6821 132.554 45.3403 130.945 45.313 129.113V127.254C45.313 125.376 45.6457 123.722 46.311 122.291C46.9764 120.86 47.9289 119.757 49.1685 118.982C50.4172 118.208 51.8573 117.82 53.4888 117.82C55.6854 117.82 57.4536 118.417 58.7935 119.611C60.1333 120.805 60.9126 122.492 61.1313 124.67H57.686C57.522 123.239 57.1027 122.209 56.4282 121.58C55.7629 120.942 54.783 120.623 53.4888 120.623C51.9849 120.623 50.8273 121.174 50.0161 122.277C49.214 123.371 48.8039 124.98 48.7856 127.104V128.867C48.7856 131.018 49.1685 132.659 49.9341 133.789C50.7088 134.919 51.839 135.484 53.3247 135.484C54.6828 135.484 55.7036 135.179 56.3872 134.568C57.0708 133.958 57.5037 132.941 57.686 131.52H61.1313ZM67.6938 135.238H76.731V138H64.2349V118.094H67.6938V135.238ZM93.6157 118.094V131.396C93.6157 133.511 92.9367 135.188 91.5786 136.428C90.2297 137.658 88.4295 138.273 86.1782 138.273C83.8996 138.273 82.0903 137.667 80.7505 136.455C79.4106 135.234 78.7407 133.543 78.7407 131.383V118.094H82.186V131.41C82.186 132.741 82.5233 133.757 83.1978 134.459C83.8722 135.161 84.8657 135.512 86.1782 135.512C88.8397 135.512 90.1704 134.108 90.1704 131.301V118.094H93.6157ZM97.3208 138V118.094H104.143C106.394 118.094 108.108 118.545 109.284 119.447C110.459 120.35 111.047 121.694 111.047 123.48C111.047 124.392 110.801 125.212 110.309 125.941C109.817 126.671 109.097 127.236 108.149 127.637C109.224 127.928 110.054 128.48 110.637 129.291C111.23 130.093 111.526 131.059 111.526 132.189C111.526 134.058 110.924 135.493 109.721 136.496C108.527 137.499 106.814 138 104.581 138H97.3208ZM100.78 129.018V135.238H104.622C105.706 135.238 106.554 134.969 107.165 134.432C107.775 133.894 108.081 133.146 108.081 132.189C108.081 130.12 107.023 129.063 104.909 129.018H100.78ZM100.78 126.475H104.17C105.246 126.475 106.084 126.233 106.686 125.75C107.297 125.258 107.602 124.565 107.602 123.672C107.602 122.688 107.319 121.977 106.754 121.539C106.198 121.102 105.328 120.883 104.143 120.883H100.78V126.475ZM130.174 131.52C129.974 133.643 129.19 135.302 127.823 136.496C126.456 137.681 124.637 138.273 122.368 138.273C120.782 138.273 119.383 137.9 118.17 137.152C116.967 136.396 116.038 135.325 115.381 133.939C114.725 132.554 114.383 130.945 114.356 129.113V127.254C114.356 125.376 114.689 123.722 115.354 122.291C116.019 120.86 116.972 119.757 118.211 118.982C119.46 118.208 120.9 117.82 122.532 117.82C124.728 117.82 126.497 118.417 127.836 119.611C129.176 120.805 129.956 122.492 130.174 124.67H126.729C126.565 123.239 126.146 122.209 125.471 121.58C124.806 120.942 123.826 120.623 122.532 120.623C121.028 120.623 119.87 121.174 119.059 122.277C118.257 123.371 117.847 124.98 117.829 127.104V128.867C117.829 131.018 118.211 132.659 118.977 133.789C119.752 134.919 120.882 135.484 122.368 135.484C123.726 135.484 124.747 135.179 125.43 134.568C126.114 133.958 126.547 132.941 126.729 131.52H130.174ZM149.083 138H145.637V129.154H136.737V138H133.278V118.094H136.737V126.379H145.637V118.094H149.083V138ZM164.573 133.365H156.862L155.249 138H151.653L159.172 118.094H162.276L169.809 138H166.2L164.573 133.365ZM157.833 130.576H163.602L160.717 122.318L157.833 130.576ZM184.821 120.883H178.614V138H175.182V120.883H169.03V118.094H184.821V120.883Z" fill="#1597E5"/>
</svg>

